<?xml version="1.0" encoding="UTF-8" standalone="no"?>
<svg width="122px" height="100px" viewBox="0 0 122 100" version="1.1" xmlns="http://www.w3.org/2000/svg" xmlns:xlink="http://www.w3.org/1999/xlink">
    <!-- Generator: Sketch 39 (31667) - http://www.bohemiancoding.com/sketch -->
    <title>logo--monogram--gold</title>
    <desc>Created with Sketch.</desc>
    <defs></defs>
    <g id="Coming-soon" stroke="none" stroke-width="1" fill="none" fill-rule="evenodd">
        <g id="monogram--footer" fill="#B7A86E">
            <path d="M44.3970588,23.1823529 C44.3970588,22.6753676 44.8084559,22.2632353 45.3161765,22.2632353 C45.8235294,22.2632353 46.2352941,22.6753676 46.2352941,23.1823529 C46.2352941,23.6893382 45.8235294,24.1014706 45.3161765,24.1014706 C44.8084559,24.1014706 44.3970588,23.6893382 44.3970588,23.1823529 L44.3970588,23.1823529 Z M121.235294,50 C121.235294,50.40625 120.905882,50.7352941 120.5,50.7352941 L101.014706,50.7352941 C100.608456,50.7352941 100.279412,50.40625 100.279412,50 C100.279412,49.5941176 100.608456,49.2647059 101.014706,49.2647059 L120.5,49.2647059 C120.905882,49.2647059 121.235294,49.5941176 121.235294,50 L121.235294,50 Z M60.9411765,72.0588235 C48.7779412,72.0588235 38.8823529,62.1632353 38.8823529,50 C38.8823529,37.8367647 48.7779412,27.9411765 60.9411765,27.9411765 C73.1044118,27.9411765 83,37.8367647 83,50 C83,62.1632353 73.1044118,72.0588235 60.9411765,72.0588235 L60.9411765,72.0588235 Z M62.9014706,93.1720588 C62.2558824,94.3511029 61.5974265,95.5547794 60.9411765,96.7926471 C60.2849265,95.5547794 59.6264706,94.3511029 58.9808824,93.1720588 C53.9422794,83.9694853 51.2584559,78.4191176 55.6886029,73.5294118 L56.2040441,73.5294118 C54.5349265,77.9735294 55.6720588,84.2834559 60.9411765,88.2352941 C66.2102941,84.2834559 67.3474265,77.9735294 65.6779412,73.5294118 L66.19375,73.5294118 C70.6235294,78.4191176 67.9400735,83.9694853 62.9014706,93.1720588 L62.9014706,93.1720588 Z M61.3591912,73.5294118 C61.9867647,74.4485294 62.2672794,75.8415441 62.0992647,77.3176471 C61.9595588,78.5455882 61.5378676,79.6397059 60.9411765,80.3908088 C60.3444853,79.6397059 59.9227941,78.5455882 59.7830882,77.3176471 C59.6150735,75.8415441 59.8955882,74.4485294 60.5231618,73.5294118 L61.3591912,73.5294118 Z M64.6930147,79.8544118 C64.3268382,81.6577206 63.3731618,84.1647059 60.9411765,86.3367647 C58.5088235,84.1647059 57.5555147,81.6577206 57.1893382,79.8544118 C56.7363971,77.6246324 56.9580882,75.3665441 57.7911765,73.5294118 L58.8492647,73.5294118 C57.5599265,76.4224265 58.4731618,80.8106618 60.9411765,82.3529412 C63.4088235,80.8106618 64.3224265,76.4224265 63.0330882,73.5294118 L64.0911765,73.5294118 C64.925,75.3665441 65.1463235,77.6246324 64.6930147,79.8544118 L64.6930147,79.8544118 Z M58.9808824,6.82830882 C59.6264706,5.64926471 60.2849265,4.44558824 60.9411765,3.20772059 C61.5974265,4.44558824 62.2558824,5.64926471 62.9014706,6.82830882 C67.9400735,16.0308824 70.6235294,21.58125 66.19375,26.4705882 L65.6779412,26.4705882 C67.3474265,22.0264706 66.2102941,15.7165441 60.9411765,11.7647059 C55.6720588,15.7165441 54.5349265,22.0264706 56.2040441,26.4705882 L55.6886029,26.4705882 C51.2584559,21.58125 53.9422794,16.0308824 58.9808824,6.82830882 L58.9808824,6.82830882 Z M60.5231618,26.4705882 C59.8955882,25.5514706 59.6150735,24.1584559 59.7830882,22.6827206 C59.9227941,21.4547794 60.3444853,20.3602941 60.9411765,19.6091912 C61.5378676,20.3602941 61.9595588,21.4547794 62.0992647,22.6827206 C62.2672794,24.1584559 61.9867647,25.5514706 61.3591912,26.4705882 L60.5231618,26.4705882 Z M57.1893382,20.1455882 C57.5555147,18.3426471 58.5088235,15.8356618 60.9411765,13.6632353 C63.3731618,15.8356618 64.3268382,18.3426471 64.6930147,20.1455882 C65.1463235,22.3757353 64.925,24.6334559 64.0911765,26.4705882 L63.0330882,26.4705882 C64.3224265,23.5775735 63.4088235,19.1897059 60.9411765,17.6470588 C58.4731618,19.1897059 57.5599265,23.5775735 58.8492647,26.4705882 L57.7911765,26.4705882 C56.9580882,24.6334559 56.7363971,22.3757353 57.1893382,20.1455882 L57.1893382,20.1455882 Z M110.205882,53.7966912 C110.611765,53.7966912 110.941176,53.4672794 110.941176,53.0613971 C110.941176,52.6551471 110.611765,52.3261029 110.205882,52.3261029 C107.657721,52.3261029 106.807721,53.6363971 106.543382,54.7356618 C106.361765,55.4908088 106.427574,56.4069853 106.637868,57.3647059 C102.94375,53.225 98.2694853,50.8897059 93.5194853,50.8797794 L93.4878676,50.8797794 C89.9091912,50.8797794 86.6261029,52.21875 84.0011029,54.6944853 C84.3084559,53.1775735 84.4705882,51.6077206 84.4705882,50 C84.4705882,48.3922794 84.3084559,46.8231618 84.0011029,45.30625 C86.6261029,47.78125 89.9091912,49.1205882 93.4878676,49.1205882 L93.5194853,49.1205882 C98.2694853,49.1102941 102.94375,46.7753676 106.637868,42.6356618 C106.427574,43.5933824 106.361765,44.5095588 106.543382,45.2643382 C106.807721,46.3639706 107.657721,47.6742647 110.205882,47.6742647 C110.611765,47.6742647 110.941176,47.3452206 110.941176,46.9389706 C110.941176,46.5330882 110.611765,46.2036765 110.205882,46.2036765 C108.588235,46.2036765 108.241912,45.5533088 108.128309,45.3397059 C107.133456,43.4716912 109.638603,38.7073529 110.663971,37.1827206 L110.648897,37.1727941 C110.929044,36.6503676 110.823897,36.5279412 110.617279,36.2867647 C110.396324,36.0283088 110.027206,35.9555147 109.724632,36.1099265 C109.665809,36.1397059 109.571324,36.2393382 109.450368,36.3963235 L109.430515,36.3838235 C109.425368,36.3915441 108.846691,37.2952206 107.036765,39.7948529 C103.429412,44.7761029 98.5014706,47.6389706 93.5161765,47.65 L93.4886029,47.65 C89.4323529,47.65 85.7882353,45.7198529 83.2261029,42.2136029 C83.1897059,42.1636029 83.1470588,42.1220588 83.1018382,42.0841912 C80.5591912,34.96875 74.6886029,29.4404412 67.3643382,27.3654412 C73.79375,20.1279412 66.6713235,11.4595588 60.9411765,0 C55.2117647,11.4595588 48.0893382,20.1279412 54.5180147,27.3654412 C47.1933824,29.4404412 41.3231618,34.96875 38.7805147,42.0841912 C38.7352941,42.1220588 38.6926471,42.1636029 38.65625,42.2136029 C36.0941176,45.7202206 32.45,47.65 28.39375,47.65 L28.3658088,47.65 C23.3808824,47.6389706 18.4529412,44.7761029 14.8452206,39.7948529 C13.0356618,37.2952206 12.4566176,36.3915441 12.4518382,36.3838235 L12.43125,36.3959559 C12.3110294,36.2393382 12.2161765,36.1397059 12.1577206,36.1099265 L11.6415441,35.8466912 L11.2647059,36.2867647 C11.0580882,36.5279412 10.9533088,36.6503676 11.2334559,37.1727941 L11.2183824,37.1827206 C12.24375,38.7073529 14.7488971,43.4716912 13.7536765,45.3397059 C13.6404412,45.5533088 13.2941176,46.2036765 11.6764706,46.2036765 C11.2702206,46.2036765 10.9411765,46.5330882 10.9411765,46.9389706 C10.9411765,47.3452206 11.2702206,47.6742647 11.6764706,47.6742647 C14.2242647,47.6742647 15.0746324,46.3639706 15.3386029,45.2643382 C15.5205882,44.5095588 15.4547794,43.5933824 15.2444853,42.6356618 C18.9382353,46.7753676 23.6128676,49.1102941 28.3628676,49.1205882 L28.3941176,49.1205882 C31.9731618,49.1205882 35.25625,47.78125 37.88125,45.3058824 C37.5738971,46.8227941 37.4117647,48.3922794 37.4117647,50 C37.4117647,51.6077206 37.5738971,53.1772059 37.88125,54.6941176 C35.25625,52.21875 31.9738971,50.8797794 28.3941176,50.8797794 L28.3628676,50.8797794 C23.6128676,50.8897059 18.9382353,53.225 15.2444853,57.3647059 C15.4547794,56.4069853 15.5205882,55.4908088 15.3386029,54.7356618 C15.0746324,53.6363971 14.2242647,52.3261029 11.6764706,52.3261029 C11.2702206,52.3261029 10.9411765,52.6551471 10.9411765,53.0613971 C10.9411765,53.4672794 11.2702206,53.7966912 11.6764706,53.7966912 C13.2941176,53.7966912 13.6404412,54.4470588 13.7536765,54.6606618 C14.7488971,56.5286765 12.24375,61.2930147 11.2183824,62.8176471 L11.2334559,62.8275735 C10.9533088,63.35 11.0580882,63.4724265 11.2647059,63.7136029 C11.4080882,63.8808824 11.6139706,63.9705882 11.8235294,63.9705882 C11.9371324,63.9705882 12.0514706,63.9444853 12.1577206,63.8904412 C12.2161765,63.8606618 12.3110294,63.7610294 12.4319853,63.6036765 L12.4518382,63.6161765 C12.4566176,63.6088235 13.0356618,62.7051471 14.8452206,60.2055147 C18.4529412,55.2238971 23.3808824,52.3610294 28.3658088,52.3503676 L28.39375,52.3503676 C32.4496324,52.3503676 36.0941176,54.2805147 38.65625,57.7867647 C38.6926471,57.8363971 38.7352941,57.8783088 38.7805147,57.9161765 C41.3224265,65.0316176 47.1933824,70.5595588 54.5180147,72.6349265 C48.0893382,79.8720588 55.2117647,88.5404412 60.9411765,100 C66.6713235,88.5404412 73.79375,79.8720588 67.3643382,72.6349265 C74.6886029,70.5595588 80.5591912,65.0316176 83.1018382,57.9161765 C83.1470588,57.8783088 83.1897059,57.8367647 83.2261029,57.7867647 C85.7889706,54.2801471 89.4323529,52.3503676 93.4886029,52.3503676 L93.5161765,52.3503676 C98.5014706,52.3610294 103.429412,55.2238971 107.036765,60.2055147 C108.846691,62.7051471 109.425368,63.6088235 109.430515,63.6161765 L109.450735,63.6040441 C109.571324,63.7610294 109.665809,63.8606618 109.724632,63.8904412 L110.240441,64.1533088 L110.617279,63.7136029 C110.823897,63.4724265 110.929044,63.35 110.648897,62.8275735 L110.663971,62.8176471 C109.638603,61.2930147 107.133456,56.5286765 108.128309,54.6606618 C108.241912,54.4470588 108.588235,53.7966912 110.205882,53.7966912 L110.205882,53.7966912 Z M20.8676471,50.7352941 L1.38235294,50.7352941 C0.976102941,50.7352941 0.647058824,50.40625 0.647058824,50 C0.647058824,49.5941176 0.976102941,49.2647059 1.38235294,49.2647059 L20.8676471,49.2647059 C21.2735294,49.2647059 21.6029412,49.5941176 21.6029412,50 C21.6029412,50.40625 21.2735294,50.7352941 20.8676471,50.7352941 L20.8676471,50.7352941 Z M76.7069853,77.7371324 C76.2,77.7371324 75.7878676,77.325 75.7878676,76.8180147 C75.7878676,76.3110294 76.2,75.8988971 76.7069853,75.8988971 C77.2150735,75.8988971 77.6261029,76.3110294 77.6261029,76.8180147 C77.6261029,77.325 77.2150735,77.7371324 76.7069853,77.7371324 L76.7069853,77.7371324 Z M80.1996324,75.8988971 C79.5908088,75.8988971 79.0966912,75.4044118 79.0966912,74.7959559 C79.0966912,74.1871324 79.5908088,73.6930147 80.1996324,73.6930147 C80.8084559,73.6930147 81.3025735,74.1871324 81.3025735,74.7959559 C81.3025735,75.4044118 80.8084559,75.8988971 80.1996324,75.8988971 L80.1996324,75.8988971 Z M95.2731618,64.1341912 C95.2731618,64.9459559 94.6147059,65.6047794 93.8025735,65.6047794 C92.9904412,65.6047794 92.3319853,64.9459559 92.3319853,64.1341912 C92.3319853,63.3220588 92.9904412,62.6636029 93.8025735,62.6636029 C94.6147059,62.6636029 95.2731618,63.3220588 95.2731618,64.1341912 L95.2731618,64.1341912 Z M84.6113971,74.4283088 C83.7992647,74.4283088 83.1408088,73.7694853 83.1408088,72.9577206 C83.1408088,72.1455882 83.7992647,71.4871324 84.6113971,71.4871324 C85.4235294,71.4871324 86.0819853,72.1455882 86.0819853,72.9577206 C86.0819853,73.7694853 85.4235294,74.4283088 84.6113971,74.4283088 L84.6113971,74.4283088 Z M104.627941,67.6466912 C104.169853,73.8783088 100.634191,77.1867647 96.8915441,80.6893382 C94.8617647,82.5889706 92.7757353,84.5411765 91.2069853,87.0003676 C90.9459559,83.8419118 92.4338235,81.1507353 95.6496324,78.9779412 C99.6308824,76.4974265 102.552206,73.1301471 103.159559,67.5650735 C103.751838,62.1275735 100.496324,57.44375 95.4172794,56.4279412 C93.3849265,56.0220588 91.0522059,56.6110294 89.1779412,58.0040441 C87.3974265,59.3268382 86.2702206,61.2007353 86.0852941,63.1444853 C85.9125,64.9577206 86.5779412,66.7974265 87.8661765,68.0654412 C89.0926471,69.2727941 90.7077206,69.8363971 92.4132353,69.6441176 C93.4147059,69.5330882 94.8007353,69.1805147 95.7154412,68.1334559 C95.9709559,67.8411765 95.9547794,67.4003676 95.6794118,67.1272059 C95.4033088,66.8540441 94.9628676,66.8426471 94.6735294,67.1003676 C94.0419118,67.6610294 93.1992647,67.9150735 92.3672794,67.7970588 C91.4698529,67.6680147 90.6764706,67.1981618 90.1330882,66.4731618 C89.5904412,65.7485294 89.3621324,64.8558824 89.4904412,63.9577206 C89.6433824,62.8860294 90.2051471,61.9378676 91.0724265,61.2878676 C91.9569853,60.6253676 93.3628676,60.2727941 94.4161765,60.4474265 C95.9511029,60.7036765 98.7018382,62.1558824 98.6040441,65.8 C98.5952206,65.8371324 98.5863971,65.875 98.5834559,65.9143382 C98.5488971,66.3496324 98.4948529,66.7625 98.4261029,67.1580882 C98.1511029,68.2165441 97.5665441,69.1238971 96.6970588,69.8113971 C95.3551471,70.8727941 93.4220588,71.34375 91.5227941,71.0735294 C87.58125,70.5091912 84.8327206,66.84375 85.3948529,62.9022059 C86.0143382,58.5742647 89.775,55.3106618 94.1422794,55.3106618 C94.5606618,55.3106618 94.9838235,55.3408088 95.3996324,55.4 C101.113971,56.2169118 105.081618,61.4816176 104.627941,67.6466912 L104.627941,67.6466912 Z M95.6077206,53.9444853 C95.1231618,53.875 94.6297794,53.8400735 94.1422794,53.8400735 C89.0761029,53.8400735 84.7117647,57.6051471 83.9536765,62.6110294 C82.4297794,67.1485294 79.9606618,68.8963235 77.5724265,70.5852941 C75.1702206,72.2838235 72.9011029,73.8882353 72.1242647,77.9672794 C72.0485294,78.3661765 72.3102941,78.7507353 72.7091912,78.8272059 C72.7555147,78.8356618 72.8018382,78.8400735 72.8474265,78.8400735 C73.1933824,78.8400735 73.5022059,78.5948529 73.5691176,78.2422794 C74.2345588,74.7463235 76.1753676,73.3742647 78.4216912,71.7856618 C80.3422794,70.4275735 82.4599265,68.9213235 84.0955882,65.9551471 C84.9077206,69.3136029 87.6915441,72.0102941 91.3143382,72.5290441 C93.0132353,72.7713235 94.7444853,72.5113971 96.1992647,71.8290441 C93.8198529,74.3955882 89.9415441,75.4588235 85.6878676,76.6220588 C80.3761029,78.0746324 74.8838235,79.5761029 71.5128676,84.2952206 C71.2768382,84.6253676 71.3533088,85.0845588 71.6841912,85.3209559 C71.8132353,85.4132353 71.9628676,85.4577206 72.1106618,85.4577206 C72.3397059,85.4577206 72.5658088,85.3507353 72.7095588,85.1496324 C75.7764706,80.8566176 81.0121324,79.425 86.0757353,78.0408088 C92.2327206,76.3573529 98.5856618,74.6180147 99.8676471,67.4492647 C99.9503676,67.1117647 100.015809,66.7661765 100.048897,66.4066176 C100.287868,63.7746324 99.3091912,62.0694853 98.4459559,61.1029412 C97.4632353,60.0018382 96.0823529,59.2345588 94.6580882,58.9970588 C93.2216912,58.7591912 91.3852941,59.2161765 90.1908088,60.1110294 C89.0088235,60.9966912 88.2433824,62.2889706 88.0349265,63.75 C87.9,64.6933824 88.0400735,65.6341912 88.4316176,66.4783088 C87.7658088,65.5709559 87.4408088,64.4213235 87.5496324,63.2838235 C87.6948529,61.7536765 88.6084559,60.2595588 90.0547794,59.1845588 C91.6014706,58.0352941 93.4992647,57.5441176 95.1290441,57.8698529 C99.4433824,58.7327206 102.205147,62.7430147 101.696691,67.4055147 C101.176103,72.1779412 98.7856618,75.1661765 95.3650735,77.4227941 C95.3238971,77.4393382 95.2845588,77.4599265 95.2463235,77.4841912 C95.0636029,77.6003676 94.8863971,77.7176471 94.7128676,77.8367647 C92.0216912,79.4834559 88.7669118,80.7459559 85.3161765,82.0849265 C77.3797794,85.1639706 69.1742647,88.3477941 65.9110294,96.7941176 C65.7643382,97.1727941 65.9529412,97.5985294 66.3316176,97.7448529 C66.4183824,97.7783088 66.5084559,97.7944853 66.5966912,97.7944853 C66.8915441,97.7944853 67.1698529,97.6154412 67.2823529,97.3238971 C70.3110294,89.4838235 78.2099265,86.4194853 85.8481618,83.4555147 C87.6849265,82.7430147 89.5,82.0389706 91.2246324,81.2727941 C89.6735294,83.625 89.3011029,86.3492647 90.1544118,89.3360294 C90.2382353,89.6301471 90.4959559,89.8411765 90.8003676,89.8669118 C91.1022059,89.8926471 91.39375,89.7261029 91.525,89.45 C93.0036765,86.3419118 95.3805147,84.1176471 97.8963235,81.7632353 C101.680882,78.2216912 105.594118,74.5591912 106.094485,67.7544118 C106.605515,60.8088235 102.096691,54.8716912 95.6077206,53.9444853 L95.6077206,53.9444853 Z M45.2886029,75.8988971 C45.7955882,75.8988971 46.2077206,76.3110294 46.2077206,76.8180147 C46.2077206,77.325 45.7955882,77.7371324 45.2886029,77.7371324 C44.7805147,77.7371324 44.3694853,77.325 44.3694853,76.8180147 C44.3694853,76.3110294 44.7805147,75.8988971 45.2886029,75.8988971 L45.2886029,75.8988971 Z M41.7959559,73.6930147 C42.4044118,73.6930147 42.8988971,74.1871324 42.8988971,74.7959559 C42.8988971,75.4044118 42.4044118,75.8988971 41.7959559,75.8988971 C41.1871324,75.8988971 40.6930147,75.4044118 40.6930147,74.7959559 C40.6930147,74.1871324 41.1871324,73.6930147 41.7959559,73.6930147 L41.7959559,73.6930147 Z M26.7224265,64.1341912 C26.7224265,63.3220588 27.3808824,62.6636029 28.1930147,62.6636029 C29.0047794,62.6636029 29.6636029,63.3220588 29.6636029,64.1341912 C29.6636029,64.9459559 29.0047794,65.6047794 28.1930147,65.6047794 C27.3808824,65.6047794 26.7224265,64.9459559 26.7224265,64.1341912 L26.7224265,64.1341912 Z M37.3841912,71.4871324 C38.1959559,71.4871324 38.8547794,72.1455882 38.8547794,72.9577206 C38.8547794,73.7694853 38.1959559,74.4283088 37.3841912,74.4283088 C36.5720588,74.4283088 35.9136029,73.7694853 35.9136029,72.9577206 C35.9136029,72.1455882 36.5720588,71.4871324 37.3841912,71.4871324 L37.3841912,71.4871324 Z M30.7882353,87.0003676 C29.2194853,84.5411765 27.1338235,82.5889706 25.1036765,80.6897059 C21.3610294,77.1867647 17.8257353,73.8786765 17.3672794,67.6466912 C16.9132353,61.4816176 20.8805147,56.2169118 26.5952206,55.4 C27.0121324,55.3408088 27.4349265,55.3106618 27.8529412,55.3106618 C32.2205882,55.3106618 35.9808824,58.5742647 36.6003676,62.9018382 C37.1621324,66.84375 34.4136029,70.5091912 30.4724265,71.0735294 C28.5768382,71.3444853 26.6400735,70.8731618 25.2981618,69.8113971 C24.4286765,69.1235294 23.8441176,68.2158088 23.5691176,67.1573529 C23.4996324,66.7621324 23.4463235,66.3492647 23.4117647,65.9143382 C23.4084559,65.8742647 23.4,65.8363971 23.3908088,65.7988971 C23.2941176,62.1555147 26.0441176,60.7036765 27.5790441,60.4474265 C28.6319853,60.2727941 30.0389706,60.6253676 30.9227941,61.2878676 C31.7900735,61.9378676 32.3518382,62.8860294 32.5047794,63.9580882 C32.6330882,64.8555147 32.4047794,65.7485294 31.8610294,66.4735294 C31.3191176,67.1985294 30.5257353,67.6680147 29.6290441,67.7966912 C28.7930147,67.9132353 27.9529412,67.6613971 27.3220588,67.1 C27.0323529,66.8430147 26.5915441,66.8536765 26.3154412,67.1275735 C26.0400735,67.4007353 26.0238971,67.8411765 26.2797794,68.1334559 C27.1944853,69.1805147 28.5805147,69.5330882 29.5819853,69.6441176 C31.2845588,69.8363971 32.9022059,69.2731618 34.1286765,68.0654412 C35.4172794,66.7974265 36.0827206,64.9577206 35.9102941,63.1444853 C35.725,61.2007353 34.5977941,59.3268382 32.8176471,58.0040441 C30.9430147,56.6102941 28.6099265,56.0198529 26.5775735,56.4279412 C21.4988971,57.4433824 18.2433824,62.1275735 18.8363971,67.5650735 C19.4430147,73.13125 22.3639706,76.4981618 26.3470588,78.9790441 C29.5610294,81.1514706 31.0492647,83.8422794 30.7882353,87.0003676 L30.7882353,87.0003676 Z M36.6786765,82.0849265 C33.2286765,80.7459559 29.9742647,79.4838235 27.2834559,77.8375 C27.1099265,77.7180147 26.9319853,77.6003676 26.7492647,77.4841912 C26.7110294,77.4599265 26.6709559,77.4393382 26.6301471,77.4227941 C23.2084559,75.1661765 20.8183824,72.1779412 20.2981618,67.4055147 C19.7897059,62.7430147 22.5522059,58.7327206 26.8661765,57.8698529 C28.4963235,57.5448529 30.3941176,58.0349265 31.9404412,59.1845588 C33.3871324,60.2595588 34.3003676,61.7536765 34.4463235,63.2838235 C34.5547794,64.4216912 34.2294118,65.5720588 33.5628676,66.4794118 C33.9551471,65.6349265 34.0955882,64.69375 33.9599265,63.7503676 C33.7518382,62.2889706 32.9863971,60.9963235 31.8051471,60.1110294 C30.6102941,59.2158088 28.7705882,58.7573529 27.3371324,58.9970588 C25.9128676,59.2345588 24.5319853,60.0018382 23.5488971,61.1029412 C22.6856618,62.0694853 21.7066176,63.7746324 21.9463235,66.40625 C21.9786765,66.7661765 22.0444853,67.1113971 22.1279412,67.4488971 C23.4095588,74.6180147 29.7621324,76.3573529 35.9194853,78.0408088 C40.9834559,79.425 46.2191176,80.8566176 49.2856618,85.1496324 C49.4294118,85.3507353 49.6555147,85.4577206 49.8845588,85.4577206 C50.0323529,85.4577206 50.1816176,85.4132353 50.3113971,85.3209559 C50.6419118,85.0845588 50.7183824,84.6253676 50.4827206,84.2952206 C47.1117647,79.5761029 41.61875,78.0746324 36.3073529,76.6220588 C32.0536765,75.4588235 28.1761029,74.3955882 25.7959559,71.8297794 C27.2511029,72.5125 28.9823529,72.7727941 30.6805147,72.5290441 C34.2897059,72.0121324 37.0658088,69.3338235 37.8900735,65.9930147 C39.5040441,68.9466912 41.6283088,70.4477941 43.5551471,71.8018382 C45.8132353,73.3886029 47.7625,74.7588235 48.4264706,78.2422794 C48.49375,78.5948529 48.8018382,78.8400735 49.1481618,78.8400735 C49.19375,78.8400735 49.2400735,78.8356618 49.2863971,78.8272059 C49.6852941,78.7507353 49.9470588,78.3661765 49.8713235,77.9672794 C49.0959559,73.8981618 46.8154412,72.2955882 44.4007353,70.5988971 C41.9981618,68.9102941 39.5147059,67.1628676 38.0422794,62.6150735 C37.2860294,57.6069853 32.9209559,53.8400735 27.8529412,53.8400735 C27.3658088,53.8400735 26.8727941,53.875 26.3875,53.9444853 C19.8981618,54.8716912 15.3900735,60.8088235 15.9007353,67.7544118 C16.4007353,74.5591912 20.3143382,78.2216912 24.0988971,81.7632353 C26.6150735,84.1180147 28.9919118,86.3419118 30.4702206,89.45 C30.6018382,89.7261029 30.8996324,89.8930147 31.1948529,89.8669118 C31.4996324,89.8411765 31.7569853,89.6301471 31.8411765,89.3360294 C32.6941176,86.3492647 32.3220588,83.6253676 30.7709559,81.2727941 C32.4955882,82.0393382 34.3099265,82.7430147 36.1474265,83.4555147 C43.7852941,86.4191176 51.6830882,89.4834559 54.7128676,97.3238971 C54.8257353,97.6158088 55.1040441,97.7944853 55.3988971,97.7944853 C55.4875,97.7944853 55.5764706,97.7783088 55.6639706,97.7448529 C56.0426471,97.5985294 56.2308824,97.1727941 56.0845588,96.7941176 C52.8213235,88.3474265 44.6150735,85.1636029 36.6786765,82.0849265 L36.6786765,82.0849265 Z M76.7349265,24.1014706 C76.2275735,24.1014706 75.8158088,23.6893382 75.8158088,23.1823529 C75.8158088,22.6753676 76.2275735,22.2632353 76.7349265,22.2632353 C77.2426471,22.2632353 77.6540441,22.6753676 77.6540441,23.1823529 C77.6540441,23.6893382 77.2426471,24.1014706 76.7349265,24.1014706 L76.7349265,24.1014706 Z M80.2275735,26.3073529 C79.61875,26.3073529 79.1246324,25.8128676 79.1246324,25.2044118 C79.1246324,24.5959559 79.61875,24.1014706 80.2275735,24.1014706 C80.8360294,24.1014706 81.3305147,24.5959559 81.3305147,25.2044118 C81.3305147,25.8128676 80.8360294,26.3073529 80.2275735,26.3073529 L80.2275735,26.3073529 Z M95.3011029,35.8661765 C95.3011029,36.6783088 94.6426471,37.3367647 93.8305147,37.3367647 C93.0183824,37.3367647 92.3599265,36.6783088 92.3599265,35.8661765 C92.3599265,35.0544118 93.0183824,34.3955882 93.8305147,34.3955882 C94.6426471,34.3955882 95.3011029,35.0544118 95.3011029,35.8661765 L95.3011029,35.8661765 Z M84.6393382,28.5132353 C83.8272059,28.5132353 83.16875,27.8547794 83.16875,27.0426471 C83.16875,26.2308824 83.8272059,25.5720588 84.6393382,25.5720588 C85.4514706,25.5720588 86.1099265,26.2308824 86.1099265,27.0426471 C86.1099265,27.8547794 85.4514706,28.5132353 84.6393382,28.5132353 L84.6393382,28.5132353 Z M91.2345588,13 C92.8036765,15.4591912 94.8897059,17.4113971 96.9194853,19.3110294 C100.662868,22.8136029 104.197426,26.1220588 104.655882,32.3533088 C105.109191,38.5183824 101.141912,43.7834559 95.4279412,44.6003676 C95.0113971,44.6595588 94.5886029,44.6897059 94.1702206,44.6897059 C89.8025735,44.6897059 86.0419118,41.4261029 85.4227941,37.0985294 C84.8610294,33.1566176 87.6095588,29.4908088 91.5507353,28.9268382 C91.9033088,28.8764706 92.2580882,28.8518382 92.6099265,28.8518382 C94.1477941,28.8518382 95.6327206,29.325 96.725,30.1889706 C97.5944853,30.8764706 98.1790441,31.7838235 98.4540441,32.8419118 C98.5235294,33.2378676 98.5768382,33.6507353 98.6113971,34.0856618 C98.6147059,34.1268382 98.6227941,34.1661765 98.6323529,34.2047794 C98.7261029,37.8455882 95.9783088,39.2970588 94.4441176,39.5525735 C93.3919118,39.7279412 91.9841912,39.375 91.1003676,38.7121324 C90.2330882,38.0625 89.6713235,37.1143382 89.5180147,36.0419118 C89.3897059,35.1452206 89.6183824,34.2518382 90.1610294,33.5272059 C90.7040441,32.8022059 91.4966912,32.3323529 92.3930147,32.2036765 C93.2301471,32.0849265 94.0702206,32.3389706 94.7011029,32.9003676 C94.9908088,33.1569853 95.43125,33.1466912 95.7073529,32.8724265 C95.9827206,32.5992647 95.9988971,32.1591912 95.7433824,31.8669118 C94.8286765,30.8194853 93.4426471,30.4669118 92.4411765,30.35625 C90.7400735,30.1661765 89.1205882,30.7272059 87.89375,31.9349265 C86.6058824,33.2033088 85.9397059,35.0430147 86.1132353,36.8555147 C86.2985294,38.7996324 87.4253676,40.6727941 89.2047794,41.9959559 C91.0801471,43.3893382 93.4125,43.9790441 95.4455882,43.5724265 C100.524265,42.5566176 103.779779,37.8727941 103.186765,32.4352941 C102.580147,26.8709559 99.6602941,23.5044118 95.6801471,21.0238971 C92.4628676,18.8511029 90.9738971,16.1595588 91.2345588,13 L91.2345588,13 Z M85.3444853,17.9154412 C88.7959559,19.2544118 92.0507353,20.5172794 94.7426471,22.1643382 C94.9154412,22.2834559 95.0922794,22.4003676 95.2738971,22.5161765 C95.3121324,22.5404412 95.3518382,22.5606618 95.3922794,22.5772059 C98.8136029,24.8338235 101.204779,27.8224265 101.725,32.5948529 C102.233088,37.2569853 99.4709559,41.2672794 95.1566176,42.1305147 C93.5279412,42.4566176 91.6294118,41.9650735 90.0827206,40.8158088 C88.6360294,39.7404412 87.7227941,38.2466912 87.5772059,36.7161765 C87.4683824,35.5794118 87.7933824,34.4294118 88.4591912,33.5224265 C88.0672794,34.3669118 87.9272059,35.3069853 88.0625,36.25 C88.2705882,37.7113971 89.0367647,39.0036765 90.2180147,39.8889706 C91.4132353,40.7845588 93.2511029,41.2441176 94.6860294,41.0033088 C96.1102941,40.7658088 97.4911765,39.9981618 98.4735294,38.8974265 C99.3371324,37.9305147 100.316176,36.2257353 100.076838,33.59375 C100.04375,33.2341912 99.9786765,32.8886029 99.8955882,32.5511029 C98.6136029,25.3819853 92.2610294,23.6433824 86.1036765,21.9595588 C81.0397059,20.575 75.8044118,19.14375 72.7378676,14.8507353 C72.5011029,14.5198529 72.0408088,14.44375 71.7121324,14.6794118 C71.38125,14.9158088 71.3047794,15.375 71.5408088,15.7051471 C74.9117647,20.4242647 80.4040441,21.9257353 85.7158088,23.3779412 C89.9694853,24.5411765 93.8477941,25.6047794 96.2275735,28.1705882 C94.7724265,27.4882353 93.0411765,27.2279412 91.3422794,27.4713235 C87.7161765,27.9900735 84.9308824,30.6919118 84.1216912,34.0544118 C82.4808824,31.0852941 80.3639706,29.5779412 78.4448529,28.2183824 C76.2014706,26.6294118 74.2632353,25.2573529 73.5970588,21.7580882 C73.5209559,21.3588235 73.1371324,21.0996324 72.7375,21.1731618 C72.3382353,21.2492647 72.0761029,21.6341912 72.1522059,22.0330882 C72.9290441,26.1147059 75.1955882,27.7194853 77.5952206,29.41875 C79.9797794,31.1073529 82.4444853,32.8555147 83.9816176,37.3893382 C84.7389706,42.3952206 89.1036765,46.1602941 94.1702206,46.1602941 C94.6577206,46.1602941 95.1503676,46.125 95.6356618,46.0558824 C102.125,45.1283088 106.633088,39.1911765 106.122426,32.2455882 C105.621691,25.4411765 101.708824,21.7790441 97.9242647,18.2371324 C95.4080882,15.8827206 93.0316176,13.6584559 91.5533088,10.5503676 C91.4216912,10.2742647 91.1242647,10.1058824 90.8283088,10.1334559 C90.5238971,10.1588235 90.2665441,10.3698529 90.1819853,10.6639706 C89.3290441,13.6507353 89.7011029,16.375 91.2522059,18.7275735 C89.5279412,17.9613971 87.7125,17.2573529 85.8761029,16.5444853 C78.2378676,13.58125 70.3393382,10.5169118 67.3102941,2.67647059 C67.1647059,2.29705882 66.7386029,2.10955882 66.3595588,2.25551471 C65.98125,2.40183824 65.7922794,2.82757353 65.9389706,3.20625 C69.2018382,11.6529412 77.4080882,14.8367647 85.3444853,17.9154412 L85.3444853,17.9154412 Z M105.058824,53.3088235 C104.652574,53.3088235 104.323529,52.9794118 104.323529,52.5735294 C104.323529,52.1680147 104.652574,51.8382353 105.058824,51.8382353 C105.464706,51.8382353 105.794118,52.1680147 105.794118,52.5735294 C105.794118,52.9794118 105.464706,53.3088235 105.058824,53.3088235 L105.058824,53.3088235 Z M105.058824,46.6911765 C105.464706,46.6911765 105.794118,47.0209559 105.794118,47.4264706 C105.794118,47.8323529 105.464706,48.1617647 105.058824,48.1617647 C104.652574,48.1617647 104.323529,47.8323529 104.323529,47.4264706 C104.323529,47.0209559 104.652574,46.6911765 105.058824,46.6911765 L105.058824,46.6911765 Z M16.8235294,51.8382353 C17.2294118,51.8382353 17.5588235,52.1680147 17.5588235,52.5735294 C17.5588235,52.9794118 17.2294118,53.3088235 16.8235294,53.3088235 C16.4172794,53.3088235 16.0882353,52.9794118 16.0882353,52.5735294 C16.0882353,52.1680147 16.4172794,51.8382353 16.8235294,51.8382353 L16.8235294,51.8382353 Z M16.8235294,48.1617647 C16.4172794,48.1617647 16.0882353,47.8323529 16.0882353,47.4264706 C16.0882353,47.0209559 16.4172794,46.6911765 16.8235294,46.6911765 C17.2294118,46.6911765 17.5588235,47.0209559 17.5588235,47.4264706 C17.5588235,47.8323529 17.2294118,48.1617647 16.8235294,48.1617647 L16.8235294,48.1617647 Z M41.8235294,24.1014706 C42.4316176,24.1014706 42.9264706,24.5959559 42.9264706,25.2044118 C42.9264706,25.8128676 42.4316176,26.3073529 41.8235294,26.3073529 C41.2147059,26.3073529 40.7205882,25.8128676 40.7205882,25.2044118 C40.7205882,24.5959559 41.2147059,24.1014706 41.8235294,24.1014706 L41.8235294,24.1014706 Z M26.75,35.8661765 C26.75,35.0544118 27.4084559,34.3955882 28.2205882,34.3955882 C29.0327206,34.3955882 29.6911765,35.0544118 29.6911765,35.8661765 C29.6911765,36.6783088 29.0327206,37.3367647 28.2205882,37.3367647 C27.4084559,37.3367647 26.75,36.6783088 26.75,35.8661765 L26.75,35.8661765 Z M37.4117647,25.5720588 C38.2238971,25.5720588 38.8823529,26.2308824 38.8823529,27.0426471 C38.8823529,27.8547794 38.2238971,28.5132353 37.4117647,28.5132353 C36.5996324,28.5132353 35.9411765,27.8547794 35.9411765,27.0426471 C35.9411765,26.2308824 36.5996324,25.5720588 37.4117647,25.5720588 L37.4117647,25.5720588 Z M17.3952206,32.3533088 C17.8529412,26.1216912 21.3889706,22.8132353 25.1316176,19.3106618 C27.1613971,17.4110294 29.2474265,15.4588235 30.8158088,13 C31.0772059,16.1577206 29.5893382,18.8481618 26.3757353,21.0205882 C22.3926471,23.5014706 19.4702206,26.86875 18.8636029,32.4352941 C18.2709559,37.8727941 21.5268382,42.5566176 26.6055147,43.5724265 C28.6393382,43.9801471 30.9709559,43.3900735 32.8455882,41.9959559 C34.6257353,40.6727941 35.7522059,38.7996324 35.9378676,36.8555147 C36.1106618,35.0426471 35.4448529,33.2029412 34.1566176,31.9349265 C32.9301471,30.7272059 31.3161765,30.1672794 29.6099265,30.3558824 C28.6077206,30.4669118 27.2213235,30.8194853 26.3069853,31.8669118 C26.0518382,32.1591912 26.0672794,32.5992647 26.3430147,32.8724265 C26.61875,33.1463235 27.0588235,33.1584559 27.3488971,32.9003676 C27.9808824,32.3389706 28.8224265,32.0838235 29.6551471,32.2033088 C30.5533088,32.3323529 31.3466912,32.8022059 31.8893382,33.5272059 C32.4323529,34.2518382 32.6602941,35.1452206 32.5327206,36.0422794 C32.3794118,37.1143382 31.8172794,38.0625 30.9507353,38.7121324 C30.0665441,39.375 28.6599265,39.7283088 27.6069853,39.5525735 C26.0720588,39.2970588 23.3242647,37.8459559 23.4180147,34.2055147 C23.4283088,34.1665441 23.4360294,34.1272059 23.4397059,34.0856618 C23.4742647,33.6507353 23.5272059,33.2378676 23.5970588,32.8419118 C23.8720588,31.7838235 24.4566176,30.8764706 25.3261029,30.1889706 C26.6680147,29.1279412 28.6029412,28.6577206 30.4996324,28.9268382 C34.4408088,29.4908088 37.1893382,33.1566176 36.6272059,37.0981618 C36.0088235,41.4261029 32.2481618,44.6897059 27.8805147,44.6897059 C27.4621324,44.6897059 27.0393382,44.6595588 26.6235294,44.6003676 C20.9084559,43.7834559 16.9415441,38.51875 17.3952206,32.3533088 L17.3952206,32.3533088 Z M26.4154412,46.0558824 C26.9,46.125 27.3933824,46.1602941 27.8805147,46.1602941 C32.9481618,46.1602941 37.3132353,42.39375 38.0694853,37.3856618 C39.5286765,32.8341912 42.0161765,31.0867647 44.4227941,29.3981618 C46.8404412,27.7018382 49.1242647,26.0996324 49.8988971,22.0330882 C49.9746324,21.6341912 49.7128676,21.2492647 49.3143382,21.1731618 C48.9154412,21.0988971 48.5301471,21.3588235 48.4540441,21.7580882 C47.7911765,25.2382353 45.8389706,26.6080882 43.5779412,28.1944853 C41.6492647,29.5474265 39.5242647,31.0477941 37.9150735,33.9974265 C37.0878676,30.6610294 34.3132353,27.9871324 30.7080882,27.4713235 C29.0106618,27.2275735 27.2790441,27.4882353 25.8235294,28.1709559 C28.2033088,25.6047794 32.0816176,24.5411765 36.3352941,23.3779412 C41.6470588,21.9257353 47.1393382,20.4242647 50.5102941,15.7051471 C50.7463235,15.375 50.6698529,14.9158088 50.3389706,14.6794118 C50.0088235,14.44375 49.5492647,14.5198529 49.3128676,14.8507353 C46.2466912,19.14375 41.0110294,20.575 35.9474265,21.9595588 C29.7904412,23.6430147 23.4375,25.3819853 22.1558824,32.5503676 C22.0724265,32.8882353 22.0066176,33.2341912 21.9742647,33.5933824 C21.7345588,36.2257353 22.7136029,37.9305147 23.5772059,38.8974265 C24.5599265,39.9981618 25.9408088,40.7658088 27.3650735,41.0033088 C28.8014706,41.2433824 30.6378676,40.7845588 31.8323529,39.8889706 C33.0139706,39.0036765 33.7797794,37.7113971 33.9882353,36.25 C34.1235294,35.30625 33.9827206,34.3650735 33.5900735,33.5202206 C34.2569853,34.4275735 34.5823529,35.5783088 34.4738971,36.7165441 C34.3275735,38.2466912 33.4150735,39.7404412 31.9683824,40.8158088 C30.4224265,41.9650735 28.525,42.4573529 26.8944853,42.1305147 C22.5801471,41.2676471 19.8180147,37.2573529 20.3257353,32.5948529 C20.8459559,27.8224265 23.2360294,24.8341912 26.6573529,22.5775735 C26.6981618,22.5610294 26.7386029,22.5404412 26.7768382,22.5161765 C26.9595588,22.3996324 27.1378676,22.2819853 27.3113971,22.1625 C30.0022059,20.5165441 33.2566176,19.2536765 36.7066176,17.9154412 C44.6426471,14.8367647 52.8488971,11.6529412 56.1121324,3.20625 C56.2588235,2.82757353 56.0705882,2.40183824 55.6915441,2.25551471 C55.3139706,2.10919118 54.8863971,2.29742647 54.7408088,2.67647059 C51.7113971,10.5169118 43.8128676,13.58125 36.1746324,16.5444853 C34.3371324,17.2573529 32.5231618,17.9610294 30.7988971,18.7275735 C32.3492647,16.3746324 32.7220588,13.6507353 31.86875,10.6639706 C31.7845588,10.3698529 31.5272059,10.1588235 31.2227941,10.1334559 C30.9198529,10.1055147 30.6294118,10.2742647 30.4977941,10.5503676 C29.0194853,13.6584559 26.6430147,15.8823529 24.1261029,18.2367647 C20.3419118,21.7786765 16.4286765,25.4408088 15.9286765,32.2455882 C15.4176471,39.1911765 19.9253676,45.1283088 26.4154412,46.0558824 L26.4154412,46.0558824 Z M56.1617647,55.5580882 L57.6323529,55.5580882 L57.6323529,62.9110294 L56.1617647,62.9110294 L56.1617647,55.5580882 Z M65.7205882,48.2051471 L64.25,48.2051471 L64.25,37.21875 L65.7205882,37.21875 L65.7205882,48.2051471 Z M68.6617647,52.9845588 L53.2205882,52.9845588 L53.2205882,50.7786765 L68.6617647,50.7786765 L68.6617647,52.9845588 Z M68.6617647,49.3080882 L57.6323529,49.3080882 L57.6323529,37.21875 L56.1617647,37.21875 L56.1617647,49.3080882 L53.2205882,49.3080882 L53.2205882,37.21875 L51.75,37.21875 L51.75,50.4110294 L51.75,51.8816176 L51.75,53.3522059 L51.75,54.8227941 L51.75,62.9110294 L53.2205882,62.9110294 L53.2205882,54.4551471 L64.25,54.4551471 L64.25,62.9110294 L65.7205882,62.9110294 L65.7205882,54.4551471 L68.6617647,54.4551471 L68.6617647,62.9110294 L70.1323529,62.9110294 L70.1323529,37.21875 L68.6617647,37.21875 L68.6617647,49.3080882 Z" id="monogram-footer"></path>
        </g>
    </g>
</svg>