<?xml version="1.0" encoding="UTF-8" standalone="no"?>
<svg width="250px" height="89px" viewBox="0 0 250 89" version="1.1" xmlns="http://www.w3.org/2000/svg" xmlns:xlink="http://www.w3.org/1999/xlink">
    <!-- Generator: Sketch 39 (31667) - http://www.bohemiancoding.com/sketch -->
    <title>masthead--white</title>
    <desc>Created with Sketch.</desc>
    <defs></defs>
    <g id="Coming-soon" stroke="none" stroke-width="1" fill="none" fill-rule="evenodd">
        <path d="M74.262709,16.3463804 C74.262709,24.0435929 66.5607501,25.1721208 62.721922,25.2546492 L62.721922,6.94198169 C68.3931611,7.08208804 74.262709,9.60784084 74.262709,16.3463804 L74.262709,16.3463804 Z M75.1725958,32.7676122 C74.2189644,30.8051637 73.0456381,28.3974457 70.0836454,26.8466795 C74.6437727,24.9744365 77.2733068,21.2952054 77.2733068,16.3463804 C77.2733068,8.96392742 71.5777651,4.14657214 62.721922,3.97287866 L62.721922,3.96424196 L59.7113242,3.96424196 L59.7113242,25.2632859 L56.19815,25.2632859 L56.19815,28.2343082 L59.7113242,28.2343082 L59.7113242,38.6367247 L62.721922,38.6367247 L62.721922,28.2410256 C69.6918885,28.3744145 71.0994912,31.2581103 72.4575168,34.0535198 C73.5025257,36.2011774 74.6865452,38.6367247 78.2765154,38.6367247 L78.2765154,35.6657024 C76.7124043,35.6657024 76.2370468,34.956534 75.1725958,32.7676122 L75.1725958,32.7676122 Z M35.7694405,25.2632859 L41.0401739,11.6057958 L46.3109073,25.2632859 L35.7694405,25.2632859 Z M51.4717933,38.6367247 L54.6933371,38.6367247 L49.5703631,25.3602087 L49.5703631,25.2632859 L49.5324511,25.2632859 L41.0401739,3.25603316 L32.5469246,25.2632859 L32.5099848,25.2632859 L32.5099848,25.3602087 L27.3860387,38.6367247 L30.6085546,38.6367247 L34.6233331,28.2343082 L47.4570148,28.2343082 L51.4717933,38.6367247 Z M184.541772,0 L184.541772,9.90724619 L186.048529,9.90724619 L188.556551,0 L184.541772,0 Z M105.874472,6.44009388 C101.160753,6.44009388 98.3474915,9.95906635 98.3474915,15.8512101 C98.3474915,21.7433538 101.160753,25.2632859 105.874472,25.2632859 C110.587219,25.2632859 113.400481,21.7433538 113.400481,15.8512101 C113.400481,9.95906635 110.587219,6.44009388 105.874472,6.44009388 L105.874472,6.44009388 Z M105.874472,28.2343082 C99.474157,28.2343082 95.3378658,23.3747291 95.3378658,15.8512101 C95.3378658,8.32961032 99.474157,3.46715231 105.874472,3.46715231 C112.274787,3.46715231 116.411078,8.32961032 116.411078,15.8512101 C116.411078,23.3747291 112.274787,28.2343082 105.874472,28.2343082 L105.874472,28.2343082 Z M181.031514,38.6367247 L181.031514,35.6657024 C189.150505,35.6657024 190.43465,30.1679677 191.579786,21.1147945 C192.597576,13.0749932 193.75146,3.96424196 205.115325,3.96424196 L205.115325,6.93430463 C196.99439,6.93430463 195.714133,12.4320394 194.567053,21.484253 C193.549263,29.5240543 192.394407,38.6367247 181.031514,38.6367247 L181.031514,38.6367247 Z M155.549822,3.96424196 L152.320502,3.96424196 L141.892771,30.825316 L131.464068,3.96424196 L128.235719,3.96424196 L135.269844,22.0389206 L131.857769,30.825316 L121.429065,3.96424196 L118.200717,3.96424196 L131.857769,39.0580034 L136.874784,26.1653404 L141.892771,39.0580034 L155.549822,3.96424196 Z M176.12143,6.93430463 L176.12143,3.96424196 L159.563629,3.96424196 L159.563629,38.6367247 L176.12143,38.6367247 L176.12143,35.6657024 L162.574226,35.6657024 L162.574226,25.2632859 L176.12143,25.2632859 L176.12143,22.2893847 L162.574226,22.2893847 L162.574226,6.93430463 L176.12143,6.93430463 Z M87.3083088,35.6657024 L87.3083088,3.96424196 L84.297711,3.96424196 L84.297711,38.6367247 L113.400481,38.6367247 L113.400481,35.6657024 L87.3083088,35.6657024 Z M3.01156992,25.2632859 L19.570344,25.2632859 L19.570344,22.2893847 L3.01156992,22.2893847 L3.01156992,25.2632859 Z M19.570344,0 L19.570344,19.3183624 L3.01156992,19.3183624 L3.01156992,0 L0,0 L0,38.6367247 L3.01156992,38.6367247 L3.01156992,28.2343082 L19.570344,28.2343082 L19.570344,38.6367247 L22.5809418,38.6367247 L22.5809418,0 L19.570344,0 Z M241.746047,55.46676 C240.876988,55.6433324 240.050702,55.8083891 239.906831,56.028145 C239.89711,56.046378 239.889334,56.0626918 239.895166,56.0972385 L239.902943,56.0943596 C239.939883,56.0972385 240.181936,56.1413816 240.471622,56.0799652 C240.893514,55.9935982 241.331932,55.7863176 241.769377,55.4610022 C241.763545,55.4638811 241.754796,55.4648407 241.746047,55.46676 L241.746047,55.46676 Z M249.865037,50.4498011 C248.575059,52.523567 246.727094,54.0167552 244.510703,54.7777438 C243.360707,56.2843669 242.071701,57.2219279 240.771029,57.490625 C239.467442,57.7583624 238.535196,57.3553168 238.343692,56.4647778 C238.023871,54.9485584 239.639503,54.5867769 241.686749,54.1338304 C242.201963,54.014836 242.759949,53.8891241 243.342237,53.7403811 C244.589443,51.9017251 245.320464,49.3644567 245.016196,47.925008 C244.922874,47.4931733 244.743035,47.4845366 244.654574,47.4806981 C244.604025,47.4797385 244.546671,47.4845366 244.484456,47.4950926 C242.397355,47.9240483 239.20789,51.9660205 238.739338,52.9064604 C238.298004,53.8238691 238.061783,54.6443549 237.839172,55.5847948 C236.786386,60.4789207 236.52003,64.2291646 237.045937,66.7155724 C237.216055,67.5101482 237.069268,67.9630947 236.619185,68.059058 L236.503505,68.0657754 C236.123413,68.0475424 235.496408,67.581161 235.343788,66.8604769 C234.656512,63.5996456 235.528487,58.5510189 236.170074,55.6222204 C235.261159,56.5847319 234.150047,57.4771901 233.005884,57.7103808 C232.771608,57.7612413 232.535387,57.780434 232.307915,57.7708377 C231.268739,57.7238157 230.481337,57.038638 230.26067,55.991679 C229.967095,54.60501 230.711725,52.440079 231.180278,51.2731658 C231.228883,51.1493732 232.392488,48.2743142 233.075875,48.1361271 C233.648443,48.0209712 233.980902,48.392349 234.052837,48.7387763 C234.090749,48.9182276 233.999372,49.1869247 233.91091,49.3586989 C233.353896,50.3941424 231.585644,53.8996801 231.953098,55.6423727 C232.059057,56.1413816 232.429428,56.357299 232.94367,56.2536586 C234.687619,55.8937964 236.443234,53.3267794 236.987611,52.4640698 C237.836255,49.6446694 238.827799,47.3175606 239.433418,46.0124603 C239.621034,45.6391633 239.746435,45.3829414 240.111945,45.3061708 C240.612577,45.2015708 241.082102,45.553756 241.152093,45.8646769 C241.197782,46.0892309 241.11807,46.2715611 240.995585,46.546016 L240.791444,46.9845681 C240.54453,47.5133256 240.238318,48.1658757 239.867947,49.0871229 C240.978087,47.8482374 242.748284,46.1429704 244.304618,45.8214935 C245.502247,45.5767872 246.462683,46.2350951 246.723206,47.4701421 C247.014836,48.852013 246.592944,50.9296174 245.663615,52.842165 C246.88263,52.121481 247.989854,51.0284595 248.730595,49.7934125 C248.756842,49.7435116 248.925987,49.4517833 249.210813,49.3922861 C249.535495,49.3289503 249.92628,49.5899704 249.990438,49.8989721 C250.034183,50.1072123 249.916559,50.3538379 249.865037,50.4498011 L249.865037,50.4498011 Z M235.003552,45.5931009 C235.086181,45.5959798 235.172698,45.5911817 235.256299,45.5748679 C235.592646,45.5019358 235.901774,45.2121268 236.104943,44.7726151 C236.287698,44.3801254 236.352829,43.9386944 236.280893,43.5961056 C236.211874,43.276548 235.932881,42.9445151 235.464328,42.9234032 C235.373923,42.9195647 235.282545,42.9272418 235.190196,42.947394 C234.840239,43.0184069 234.52625,43.3101351 234.325998,43.7477276 C234.151019,44.1287017 234.086861,44.5576574 234.158796,44.8925692 C234.243369,45.2917763 234.583604,45.5748679 235.003552,45.5931009 L235.003552,45.5931009 Z M217.916927,38.1665048 C216.196308,38.0897342 214.305571,38.2605488 212.297209,38.6731908 C202.215546,40.7517548 194.13544,47.8683896 195.349595,53.6089114 C195.83759,55.9197065 197.527102,57.3620342 199.868894,57.4647149 C200.353972,57.4877461 200.840995,57.4503204 201.313436,57.3514783 C202.802696,57.0472747 203.879784,56.3496219 204.527203,55.8179855 C204.959789,55.4638811 205.753023,54.6932962 205.673311,54.3094431 C205.622762,54.0820102 205.378764,53.8190709 205.106576,53.8056361 L204.994784,53.8152324 C204.864523,53.8411425 204.758564,53.9332672 204.535952,54.1395882 C204.03046,54.594454 202.986423,55.5416113 201.28719,55.8889983 C200.916819,55.96289 200.544504,55.9945579 200.184827,55.9792037 C198.513785,55.905312 197.35504,54.9053749 197.002167,53.2346547 C196.100057,48.9662092 202.861994,42.190244 212.617031,40.1807735 C214.415418,39.8122746 216.101042,39.659693 217.629185,39.7278269 C222.696749,39.9543002 226.012587,42.5587429 226.964274,47.0651772 C228.723778,55.3861508 221.334835,66.8086568 213.090444,68.5052871 C212.599533,68.6060485 212.141673,68.6473127 211.718809,68.6281201 C210.471603,68.5724614 209.608377,67.9899644 209.413957,67.0706365 C208.92985,64.7799936 212.802702,61.8041732 217.539752,60.8291865 C217.780833,60.7802453 218.517686,60.6267041 218.376731,59.9568806 C218.351456,59.8340476 218.240637,59.5490367 217.779861,59.5279248 C217.656404,59.522167 217.508645,59.5394404 217.343387,59.5739872 C212.009467,60.6698875 206.950652,63.9364766 207.701114,67.4909555 C208.028712,69.0417217 209.613238,70.1433798 211.642985,70.231666 C212.202916,70.2585357 212.788121,70.2086348 213.387907,70.0848422 C217.67779,69.2029399 222.081409,65.9267545 225.172691,61.3262762 C228.366044,56.5674585 229.65019,51.2395787 228.690726,46.7072343 C227.585447,41.4599636 223.752451,38.4284845 217.916927,38.1665048 L217.916927,38.1665048 Z M215.062838,44.5375051 C215.398213,44.2755255 215.695676,43.9674834 215.601382,43.5154965 C215.524586,43.1690692 215.11922,42.8111262 214.623448,42.9157262 C213.328609,43.1805847 210.530901,47.1582616 208.568229,50.8499679 C207.289915,53.2644033 204.396942,59.2822589 205.207674,63.1159908 C205.328215,63.6869722 205.778298,63.9604675 206.14478,63.9777408 C206.210883,63.9806197 206.276986,63.9748619 206.3392,63.9604675 C206.664854,63.8952124 206.972038,63.6015649 206.898159,63.2503394 C205.704418,57.5961845 212.22819,46.8252691 215.062838,44.5375051 L215.062838,44.5375051 Z M149.878583,66.8662347 C149.878583,66.8662347 149.841643,66.8038586 149.700688,66.7981008 C149.651111,66.7942623 149.592785,66.7981008 149.528627,66.8124953 C148.011176,67.1224566 146.161268,69.1127345 145.437052,71.1068509 C147.809951,69.8199837 150.094389,67.8872837 149.878583,66.8662347 L149.878583,66.8662347 Z M186.28961,50.1388802 C186.241005,49.9258418 186.115604,49.8941739 185.999924,49.8874565 C185.939654,49.8855372 185.872579,49.8932143 185.795783,49.9056895 C183.7359,50.3317663 181.072343,54.9859841 179.036762,61.6410356 C184.169457,55.5118627 186.605543,51.6416647 186.28961,50.1388802 L186.28961,50.1388802 Z M191.561316,61.9337236 C191.603116,62.1390849 191.485492,62.389549 191.434943,62.4864719 C191.3319,62.6640039 188.944419,66.6503174 186.208926,67.2107428 C185.036572,67.4525702 184.071275,66.8931045 183.84672,65.8269527 C183.581336,64.562157 184.35124,63.1793266 185.032683,61.958674 C185.508041,61.10748 185.957152,60.2985097 185.862858,59.8321283 C185.849248,59.7707118 185.829806,59.7543981 185.829806,59.7543981 C184.527191,60.0173374 179.807639,65.3337016 177.507647,69.0868244 L177.417242,69.2326885 C177.216989,69.5867929 177.040066,69.8929157 176.478192,70.0080716 C176.412089,70.0215065 176.34307,70.0282239 176.27405,70.025345 C175.875489,70.0080716 175.532337,69.7230608 175.453597,69.3468848 C175.42249,69.2038996 175.504146,68.7058503 175.651906,68.0264305 C174.445528,69.3219344 172.827951,70.5886493 170.885693,70.9888161 C170.513378,71.064627 170.149812,71.0953353 169.805688,71.0819004 C168.435997,71.0204839 167.403626,70.2153523 167.046865,68.9745474 C166.063098,70.1904018 164.575783,71.6672763 162.935848,72.0060265 C162.702544,72.0559274 162.471184,72.0741605 162.2476,72.0655238 C161.286192,72.0232999 160.571698,71.4446415 160.385054,70.5579411 C160.139113,69.388149 160.878882,68.0273901 161.53505,66.8249705 C162.055124,65.8634188 162.549924,64.9556064 162.429383,64.384625 C162.429383,64.384625 162.365225,64.2387609 162.139697,64.2857829 C160.19355,64.6859496 156.669683,68.6981732 153.940022,73.6201285 C153.762128,73.979031 153.564791,74.2131814 153.09721,74.308185 C153.035968,74.3197006 152.969865,74.3244987 152.903762,74.3225795 C152.587829,74.308185 152.206766,74.1085814 152.118304,73.7055357 C152.102751,73.623967 152.095946,73.5040129 152.130942,73.2900149 C150.957615,74.4732418 149.434333,75.6132852 147.69816,75.9721878 C147.315152,76.0527969 146.937976,76.0835051 146.571494,76.0671914 C145.08904,76.0009767 143.999314,75.1843295 143.575478,73.8686733 C142.489641,75.3311532 140.957609,76.9817212 139.388638,77.3031981 C139.177692,77.3492604 138.965773,77.3646146 138.76066,77.3550182 C137.804112,77.3127944 137.091562,76.7197415 136.897142,75.8080906 C136.631758,74.5480931 137.285982,73.1911727 137.862438,71.9935513 C138.239614,71.2095316 138.596375,70.4706145 138.509858,70.0685285 C138.481667,70.0224661 138.251279,69.9207451 138.176427,69.8881176 C137.635939,69.6539672 137.094478,69.4236554 136.897142,69.4140591 C136.867979,69.4332517 136.808681,69.5340132 136.726052,69.7115452 C136.342072,70.5771337 135.312617,72.6365051 134.38912,74.24293 C134.348292,74.3062657 134.170398,74.5557702 133.901126,74.6104692 C133.571583,74.6747646 133.189547,74.4367757 133.126361,74.1392897 C133.083588,73.9310494 133.20024,73.6815449 133.25079,73.5846221 C134.105267,72.1278999 135.38358,69.3008225 135.701457,68.1722946 C135.752979,67.9755699 135.8045,67.6800031 135.856993,67.3681226 C136.058218,66.1983305 136.287634,64.8682798 137.108088,64.7003441 C137.577613,64.6005423 138.23767,65.0333366 138.328075,65.4594135 C138.396122,65.7847289 138.177399,66.2136846 137.809945,66.8873467 C137.646632,67.186752 137.380276,67.6684875 137.351113,67.8738489 C137.592194,68.0312286 138.502081,68.3786156 139.373084,68.6377164 C139.710403,68.7154466 140.202286,68.8805034 140.31505,69.4207765 C140.474475,70.1731284 139.995229,71.1433169 139.488764,72.1643659 C138.952164,73.2429929 138.346545,74.4655647 138.543881,75.3992872 C138.632343,75.8119291 138.867591,75.8695071 139.037709,75.8781438 C139.115477,75.8810227 139.20005,75.872386 139.2924,75.8551126 C140.528912,75.5988907 142.008451,74.1124199 143.481184,71.665357 C143.686298,70.6203172 144.2054,69.5013857 145.003495,68.4198798 C146.195291,66.8096164 147.759402,65.6388647 149.084376,65.3672887 C150.255758,65.1225824 151.252162,65.669573 151.45922,66.6464789 C151.932633,68.8833823 147.627196,71.6432855 145.154171,72.8629784 C145.158059,72.9829325 145.184306,73.1048058 145.212497,73.229558 C145.41761,74.2064639 146.278892,74.6910784 147.378338,74.4665243 C150.431709,73.8360458 152.479926,71.0348784 153.197337,69.9044313 C153.987655,67.8508177 155.473026,64.395181 156.167106,64.2521957 C156.249735,64.2339627 156.33042,64.2282049 156.408188,64.2310838 C156.880629,64.2521957 157.130459,64.6283717 157.185869,64.8778761 C157.228641,65.0813182 157.132403,65.2742044 156.924373,65.6388647 C156.379997,66.5908202 155.904639,67.5111078 155.461361,68.4889733 C157.553323,65.6379051 160.126475,63.092 162.01624,62.7043085 C162.18247,62.6668828 162.354531,62.6544076 162.520761,62.6620846 C163.354824,62.6985507 164.026546,63.2465009 164.189859,64.0209243 C164.41247,65.068843 163.749497,66.3058093 163.108882,67.4986326 C162.591724,68.461144 162.059985,69.4572426 162.191218,70.082923 C162.267042,70.4360677 162.491598,70.5243539 162.91835,70.4370274 C165.045308,69.9984753 166.668717,67.3911537 167.037144,66.7529981 C167.57666,64.1341609 169.75125,61.0748524 172.240802,60.561449 C172.492576,60.5105885 172.740462,60.4894766 172.976683,60.4990729 C173.882681,60.5393775 174.549543,61.0479827 174.715772,61.8195273 C174.906304,62.7282993 174.1364,63.7742987 173.705759,63.8673831 C173.334416,63.9422344 172.956269,63.6917703 172.884333,63.3328678 C172.848365,63.1764477 172.925161,63.0392202 173.018483,62.8636075 C173.134163,62.6524883 173.27609,62.3905086 173.219708,62.1266097 C173.180824,61.9385217 173.022371,61.8732667 172.769625,61.9231676 C170.714603,62.3482848 168.184223,65.9075618 168.716935,68.4294761 C168.912327,69.3660775 169.653068,69.772002 170.721408,69.5532058 C173.79422,68.9198483 175.674264,66.0860535 176.414033,64.8826743 C176.647337,63.9882968 176.883558,63.1255872 177.068257,62.4759159 C178.773323,56.5079613 181.60797,49.2281889 185.421524,48.447048 C186.601655,48.2052207 187.639859,48.8385781 187.867331,49.9152858 C188.492392,52.8699944 182.249557,60.1430493 178.519604,64.489225 L178.351431,64.6801918 C178.204644,65.0266192 178.052024,65.4718887 177.914957,65.9133196 C180.155651,62.7964332 183.887548,58.5059162 185.623721,58.1508521 C186.585129,57.9541275 187.377392,58.4915217 187.588338,59.4799432 C187.795395,60.4635665 187.140199,61.6621476 186.511249,62.8213836 C185.984371,63.7973299 185.434161,64.8030248 185.569283,65.4402208 C185.624693,65.6916445 185.710238,65.7137161 185.841472,65.7194739 C185.921184,65.7233124 186.017422,65.7127564 186.135046,65.6906849 C188.352409,65.2319805 190.276198,61.8675089 190.296612,61.8320025 C190.324803,61.7773035 190.495893,61.4836559 190.777802,61.4270376 C191.110261,61.3569844 191.493269,61.6074485 191.561316,61.9337236 L191.561316,61.9337236 Z M132.498383,71.5828286 C132.536295,71.7613203 132.504216,71.9388523 132.405062,72.0741605 C132.320489,72.1912356 132.191199,72.2776026 132.045384,72.3073512 L131.942341,72.3140686 C131.837354,72.3102301 131.742088,72.2728044 131.636129,72.2248228 C131.456291,72.1499714 131.187019,72.0357752 130.695135,72.0146632 C130.298518,71.9964302 129.827049,72.0405733 129.293365,72.1518907 C129.072698,72.1979531 128.798566,72.2948759 128.45833,72.4532153 C128.381534,72.9080811 128.308627,73.3639066 128.232803,73.8187724 C127.089612,80.9066182 126.004746,87.602934 119.983551,88.8408599 C119.373071,88.9684911 118.778145,89.0193516 118.219187,88.9934415 C115.985298,88.8945994 114.330782,87.5722257 113.901113,85.5397241 C113.288689,82.6397146 115.882255,80.2982112 116.411078,80.1859342 L116.506344,80.181136 C116.743537,80.1907324 116.959344,80.4248827 117.003088,80.6264055 C117.038084,80.7962605 116.950595,80.9152549 116.736732,81.2002658 C116.24971,81.8470581 115.243585,83.1953418 115.612983,84.9437923 C115.849204,86.0665623 116.731872,87.292013 118.497208,87.3716625 C118.861746,87.386057 119.246698,87.3534295 119.651092,87.2689819 C124.453273,86.2786411 125.376769,80.3816992 126.353731,74.1431282 L126.49663,73.2391543 C126.258465,73.3140057 126.026133,73.3754222 125.792828,73.4243634 C125.382602,73.5097707 124.987928,73.5433579 124.614642,73.5280037 C123.422845,73.4742643 122.56934,72.9052022 122.388529,72.0463311 C122.340897,71.8284945 122.381725,71.5741919 122.498377,71.3525168 C122.623778,71.111649 122.816254,70.9475519 123.029144,70.9043684 C123.458813,70.8160822 123.67948,71.1212454 123.789328,71.3457994 C123.986664,71.7507643 124.741987,71.9302156 125.614934,71.7498047 C125.922118,71.6845497 126.285684,71.5684341 126.787288,71.3697902 C127.42207,67.6675279 128.286268,63.8577868 130.214917,60.8301462 C128.87925,60.9337865 126.793121,60.6353408 124.58159,60.2937116 C122.627666,59.9895081 120.611528,59.6785871 118.635246,59.5903009 C117.108075,59.522167 115.82879,59.5989376 114.722538,59.8273302 C111.350319,60.5211445 107.698134,62.6803177 108.499146,66.4708661 C108.914233,68.432355 110.458902,69.706747 112.534338,69.7998314 C112.975672,69.8209433 113.427699,69.7844772 113.877782,69.6904333 C114.39494,69.5819948 114.703096,69.7451323 114.776976,70.101156 C114.832386,70.3640953 114.740036,70.7066841 113.985686,70.8621446 C113.341182,70.9945739 112.688902,71.0473537 112.055092,71.0195243 C109.316683,70.8986106 107.291796,69.2893069 106.77075,66.8268898 C106.31775,64.6773129 106.906844,62.697591 108.473871,61.0998029 C109.84745,59.7006587 111.927747,58.6584977 114.336614,58.1633274 C115.612983,57.9003881 116.994339,57.8044248 118.564283,57.8754376 C120.438494,57.9589256 122.302985,58.2621695 124.10526,58.5558171 C125.781163,58.830272 127.364716,59.0874535 128.849115,59.1536681 C129.859128,59.2006901 130.723326,59.1507892 131.491286,59.0010866 C132.064826,58.2065108 132.923192,57.3303663 133.529783,57.2056141 C134.136374,57.0799022 134.624369,57.3841058 134.740049,57.929177 C134.903362,58.6978427 134.110127,59.5423193 132.3166,60.5125078 C130.461831,63.0641707 129.535418,66.4056111 128.755793,70.6059227 C128.888971,70.5656181 129.019233,70.5301117 129.154355,70.503242 C129.486813,70.4341485 129.824133,70.4082384 130.151731,70.4226329 C131.4281,70.4782916 132.40895,71.158671 132.498383,71.5828286 L132.498383,71.5828286 Z" id="masthead--white" fill="#FFFFFF"></path>
    </g>
</svg>