<?xml version="1.0" standalone="no"?>
<!DOCTYPE svg PUBLIC "-//W3C//DTD SVG 20010904//EN"
 "http://www.w3.org/TR/2001/REC-SVG-20010904/DTD/svg10.dtd">
<svg version="1.0" xmlns="http://www.w3.org/2000/svg"
 width="700.000000pt" height="700.000000pt" viewBox="0 0 700.000000 700.000000"
 preserveAspectRatio="xMidYMid meet">
<metadata>
Created by potrace 1.11, written by Peter Selinger 2001-2013
</metadata>
<g transform="translate(0.000000,700.000000) scale(0.100000,-0.100000)"
fill="#000000" stroke="none">
<path d="M1358 6535 c-3 0 -6 -5992 -2 -6006 4 -13 27 -16 174 -15 l170 0 2
990 3 991 1293 0 c852 0 1296 -3 1300 -10 4 -5 7 -449 8 -985 1 -536 2 -978 3
-981 2 -10 341 -5 341 6 0 5 2 451 3 990 l2 980 345 0 345 -1 0 -989 1 -990
172 -1 c95 0 172 2 173 5 5 30 3 5999 -2 6006 -8 11 -325 13 -336 1 -4 -3 -7
-640 -7 -1414 l-1 -1407 -1301 -3 -1301 -2 -1 1392 c0 766 -1 1404 -1 1418
l-1 25 -162 -2 c-90 0 -168 -1 -173 -2 -7 -1 -10 -473 -10 -1416 l0 -1415
-347 0 -348 0 0 1418 0 1417 -170 0 c-93 0 -171 0 -172 0z m3983 -3184 c3 0 5
-116 5 -256 l0 -255 -1823 0 -1823 0 0 253 c0 140 2 256 4 258 4 4 3621 4
3637 0z"/>
<path d="M4323 6530 c-18 -5 -18 -54 -18 -1287 l0 -1283 75 -1 c163 -1 263 1
267 4 6 7 4 2559 -2 2565 -7 7 -297 9 -322 2z"/>
<path d="M2399 2236 c-4 -2 -3 -1716 1 -1718 3 0 80 -2 173 -3 146 -1 167 0
168 14 5 93 0 1693 -5 1699 -6 5 -327 12 -337 8z"/>
</g>
</svg>
